<?xml version="1.0" encoding="UTF-8" standalone="no"?>
<!DOCTYPE svg PUBLIC "-//W3C//DTD SVG 1.0//EN"
 "http://www.w3.org/TR/2001/REC-SVG-20010904/DTD/svg10.dtd">
<!-- Generated by dot version 2.2.1 (Thu Apr  6 00:32:47 UTC 2006)
     For user: (bbieber) Brett Bieber,,,   Title: class_structure    Pages: 1 -->
<svg width="2323pt" height="188pt"
 viewBox = "-1 -1 2322 187"
 xmlns="http://www.w3.org/2000/svg">
<g id="graph0" class="graph" style="font-family:Times-Roman;font-size:14.00;">
<title>class_structure</title>
<g id="node1" class="node"><title>UNL_UCBCN_Manager</title>
<ellipse cx="141" cy="154" rx="135" ry="25" style="fill:none;stroke:#1e92ff;"/>
<text text-anchor="middle" style="font-size:24.00;fill:#104f8a;" x="141" y="162">UNL_UCBCN_Manager</text>
</g>
<g id="node2" class="node"><title>UNL_UCBCN_Manager_setup_postinstall</title>
<ellipse cx="470" cy="30" rx="222" ry="25" style="fill:none;stroke:#1e92ff;"/>
<text text-anchor="middle" style="font-size:24.00;fill:#104f8a;" x="470" y="38">UNL_UCBCN_Manager_setup_postinstall</text>
</g>
<g id="node3" class="node"><title>UNL_UCBCN_Manager_FormBuilder</title>
<ellipse cx="872" cy="154" rx="203" ry="25" style="fill:none;stroke:#1e92ff;"/>
<text text-anchor="middle" style="font-size:24.00;fill:#104f8a;" x="872" y="162">UNL_UCBCN_Manager_FormBuilder</text>
</g>
<g id="node4" class="node"><title>UNL_UCBCN_Manager_Login</title>
<ellipse cx="1222" cy="30" rx="170" ry="25" style="fill:none;stroke:#1e92ff;"/>
<text text-anchor="middle" style="font-size:24.00;fill:#104f8a;" x="1222" y="38">UNL_UCBCN_Manager_Login</text>
</g>
<g id="node5" class="node"><title>UNL_UCBCN_Manager_SubForm</title>
<ellipse cx="1573" cy="154" rx="186" ry="25" style="fill:none;stroke:#1e92ff;"/>
<text text-anchor="middle" style="font-size:24.00;fill:#104f8a;" x="1573" y="162">UNL_UCBCN_Manager_SubForm</text>
</g>
<g id="node6" class="node"><title>UNL_UCBCN_Manager_Plugin</title>
<ellipse cx="1997" cy="30" rx="172" ry="25" style="fill:none;stroke:#1e92ff;"/>
<text text-anchor="middle" style="font-size:24.00;fill:#104f8a;" x="1997" y="38">UNL_UCBCN_Manager_Plugin</text>
</g>
<g id="node7" class="node"><title>UNL_UCBCN_Manager_InDesignExport</title>
<ellipse cx="1997" cy="154" rx="218" ry="25" style="fill:none;stroke:#1e92ff;"/>
<text text-anchor="middle" style="font-size:24.00;fill:#104f8a;" x="1997" y="162">UNL_UCBCN_Manager_InDesignExport</text>
</g>
<g id="edge8" class="edge"><title>UNL_UCBCN_Manager_Plugin&#45;&gt;UNL_UCBCN_Manager_InDesignExport</title>
<path style="fill:none;stroke:#36648a;" d="M1997,66C1997,86 1997,110 1997,128"/>
<polygon style="fill:#36648a;stroke:#36648a;" points="1994,66 1997,56 2001,66 1994,66"/>
</g>
<g id="node8" class="node"><title>Exception</title>
<ellipse cx="2252" cy="30" rx="63" ry="25" style="fill:none;stroke:#1e92ff;"/>
<text text-anchor="middle" style="font-size:24.00;fill:#104f8a;" x="2252" y="38">Exception</text>
</g>
<g id="node9" class="node"><title>UNL_UCBCN</title>
<ellipse cx="141" cy="30" rx="87" ry="25" style="fill:none;stroke:black;"/>
<text text-anchor="middle" style="font-size:24.00;" x="141" y="38">UNL_UCBCN</text>
</g>
<g id="edge2" class="edge"><title>UNL_UCBCN&#45;&gt;UNL_UCBCN_Manager</title>
<path style="fill:none;stroke:#36648a;" d="M141,66C141,86 141,110 141,128"/>
<polygon style="fill:#36648a;stroke:#36648a;" points="138,66 141,56 145,66 138,66"/>
</g>
<g id="node11" class="node"><title>DB_DataObject_FormBuilder</title>
<ellipse cx="872" cy="30" rx="160" ry="25" style="fill:none;stroke:black;"/>
<text text-anchor="middle" style="font-size:24.00;" x="872" y="38">DB_DataObject_FormBuilder</text>
</g>
<g id="edge4" class="edge"><title>DB_DataObject_FormBuilder&#45;&gt;UNL_UCBCN_Manager_FormBuilder</title>
<path style="fill:none;stroke:#36648a;" d="M872,66C872,86 872,110 872,128"/>
<polygon style="fill:#36648a;stroke:#36648a;" points="869,66 872,56 876,66 869,66"/>
</g>
<g id="node13" class="node"><title>HTML_QuickForm_SubForm</title>
<ellipse cx="1573" cy="30" rx="161" ry="25" style="fill:none;stroke:black;"/>
<text text-anchor="middle" style="font-size:24.00;" x="1573" y="38">HTML_QuickForm_SubForm</text>
</g>
<g id="edge6" class="edge"><title>HTML_QuickForm_SubForm&#45;&gt;UNL_UCBCN_Manager_SubForm</title>
<path style="fill:none;stroke:#36648a;" d="M1573,66C1573,86 1573,110 1573,128"/>
<polygon style="fill:#36648a;stroke:#36648a;" points="1570,66 1573,56 1577,66 1570,66"/>
</g>
</g>
</svg>
